<?xml version="1.0" encoding="utf-8"?>
<!-- Generator: Adobe Illustrator 17.0.0, SVG Export Plug-In . SVG Version: 6.00 Build 0)  -->
<!DOCTYPE svg PUBLIC "-//W3C//DTD SVG 1.1//EN" "http://www.w3.org/Graphics/SVG/1.1/DTD/svg11.dtd">
<svg version="1.1" id="Layer_1" xmlns="http://www.w3.org/2000/svg" xmlns:xlink="http://www.w3.org/1999/xlink" x="0px" y="0px"
	 width="41.498px" height="47.459px" viewBox="0 0 41.498 47.459" enable-background="new 0 0 41.498 47.459" xml:space="preserve">
<g>
	
		<polyline fill="none" stroke="#3B3735" stroke-width="2" stroke-linecap="round" stroke-linejoin="round" stroke-miterlimit="10" points="
		14.122,37.67 18.122,37.67 18.122,46.459 14.466,42.67 14.339,42.67 11.122,46.459 11.122,37.67 15.122,37.67 	"/>
	<g>
		<g>
			
				<line fill="none" stroke="#3B3735" stroke-width="2" stroke-linecap="round" stroke-linejoin="round" stroke-miterlimit="10" x1="9.122" y1="37.67" x2="37.122" y2="37.67"/>
			
				<line fill="none" stroke="#3B3735" stroke-width="2" stroke-linecap="round" stroke-linejoin="round" stroke-miterlimit="10" x1="40.498" y1="43.03" x2="18.532" y2="43.03"/>
			<path fill="none" stroke="#3B3735" stroke-width="2" stroke-linecap="round" stroke-linejoin="round" stroke-miterlimit="10" d="
				M10.699,43.03H5.643C3.079,43.03,1,40.952,1,38.388v-0.146c0-2.564,2.079-4.643,4.643-4.643h31.855v8.765"/>
		</g>
		<path fill="none" stroke="#3B3735" stroke-width="2" stroke-linecap="round" stroke-linejoin="round" stroke-miterlimit="10" d="
			M5.643,33.599h33.112c0.521,0,0.943-0.422,0.943-0.943V1.943C39.699,1.422,39.276,1,38.755,1H7.38C3.856,1,1,3.856,1,7.38v30.862"
			/>
		
			<line fill="none" stroke="#3B3735" stroke-width="2" stroke-linecap="round" stroke-linejoin="round" stroke-miterlimit="10" x1="8.122" y1="1.67" x2="8.122" y2="32.67"/>
		<path fill="none" stroke="#3B3735" stroke-width="2" stroke-linecap="round" stroke-linejoin="round" stroke-miterlimit="10" d="
			M32.625,16.265H15.177c-0.521,0-0.943-0.422-0.943-0.943v-6.13c0-0.521,0.422-0.943,0.943-0.943h17.448
			c0.521,0,0.943,0.422,0.943,0.943v6.13C33.568,15.843,33.146,16.265,32.625,16.265z"/>
	</g>
</g>
</svg>
