<?xml version="1.0" encoding="utf-8"?>
<!-- Generator: Adobe Illustrator 17.0.0, SVG Export Plug-In . SVG Version: 6.00 Build 0)  -->
<!DOCTYPE svg PUBLIC "-//W3C//DTD SVG 1.1//EN" "http://www.w3.org/Graphics/SVG/1.1/DTD/svg11.dtd">
<svg version="1.1" id="Layer_1" xmlns="http://www.w3.org/2000/svg" xmlns:xlink="http://www.w3.org/1999/xlink" x="0px" y="0px"
	 width="42.531px" height="41.349px" viewBox="0 0 42.531 41.349" enable-background="new 0 0 42.531 41.349" xml:space="preserve">
<path fill="none" stroke="#000000" stroke-width="2" stroke-linecap="round" stroke-linejoin="round" stroke-miterlimit="10" d="
	M10.171,40.349h29.393c0.251,0,0.477-0.148,0.574-0.38c0.896-2.136,4.73-12.478-6.069-10.228c-8.335,1.737-5.608-10.965,0.307-8.276
	c5.843,2.656,9.801,2.226,4.193-9.191c-0.122-0.248-0.395-0.39-0.667-0.343c-1.786,0.306-8.222,1.307-8.684-0.081
	c-0.538-1.613,6.913-11.945-3.796-10.754c-10.554,1.173-0.505,9.679-3.194,11.83c-1.989,1.591-8.095,0.24-11.141-0.571
	c-0.561-0.15-0.997,0.48-0.668,0.959c1.563,2.279,3.985,6.685,1.525,9.291c-3.428,3.63-6.548-5.308-10.082,1.21
	c-3.381,6.234,4.033,8.469,7.663,6.654c3.046-1.523,0.837,6.471,0.048,9.079C9.451,39.948,9.752,40.349,10.171,40.349z"/>
</svg>
